<svg width="112" height="28" viewBox="0 0 112 28" fill="none" xmlns="http://www.w3.org/2000/svg">
<path d="M11.2 0.0399976H18.16L29.32 28H22.08L19.84 22.24H9.52L7.28 28H1.49012e-08L11.2 0.0399976ZM18.08 16.8L14.68 7.4L11.24 16.8H18.08ZM32.1281 0.0399976H39.2081V28H32.1281V0.0399976ZM42.7922 0.0399976H49.5922L57.6722 17.36L65.7922 0.0399976H72.5522V28H65.9522V13.96L59.2722 28H56.0722L49.4322 13.96V28H42.7922V0.0399976ZM75.3516 13.08H89.5916V18.68H75.3516V13.08ZM92.4016 0.0399976H99.4816V22.04H111.642V28H92.4016V0.0399976Z" fill="url(#paint0_linear_84_73)"/>
<defs>
<linearGradient id="paint0_linear_84_73" x1="-1" y1="15" x2="112" y2="15" gradientUnits="userSpaceOnUse">
<stop stop-color="#C2E0F9"/>
<stop offset="1" stop-color="#2E77B3"/>
</linearGradient>
</defs>
</svg>
