<svg width="150" height="65" viewBox="0 0 150 65" fill="none" xmlns="http://www.w3.org/2000/svg">
<path d="M12.2 15.04H19.16L30.32 43H23.08L20.84 37.24H10.52L8.28 43H1L12.2 15.04ZM19.08 31.8L15.68 22.4L12.24 31.8H19.08ZM33.1281 15.04H40.2081V43H33.1281V15.04ZM43.7922 15.04H50.5922L58.6722 32.36L66.7922 15.04H73.5522V43H66.9522V28.96L60.2722 43H57.0722L50.4322 28.96V43H43.7922V15.04ZM76.3516 28.08H90.5916V33.68H76.3516V28.08ZM93.4016 15.04H100.482V37.04H112.642V43H93.4016V15.04Z" fill="url(#paint0_linear_311_329)"/>
<path d="M78.66 51.612H80.748L84.096 60H81.924L81.252 58.272H78.156L77.484 60H75.3L78.66 51.612ZM80.724 56.64L79.704 53.82L78.672 56.64H80.724ZM87.2194 60.18C86.6194 60.18 86.0874 60.056 85.6234 59.808C85.1594 59.552 84.7994 59.196 84.5434 58.74C84.2874 58.276 84.1594 57.74 84.1594 57.132C84.1594 56.532 84.2874 56 84.5434 55.536C84.7994 55.064 85.1554 54.7 85.6114 54.444C86.0754 54.188 86.6114 54.06 87.2194 54.06C87.6194 54.06 87.9874 54.116 88.3234 54.228C88.6594 54.34 88.9474 54.5 89.1874 54.708V51.132H91.2994V60H89.2594V59.424C88.7234 59.928 88.0434 60.18 87.2194 60.18ZM87.7714 58.548C88.0914 58.548 88.3794 58.468 88.6354 58.308C88.8914 58.14 89.0754 57.916 89.1874 57.636V56.616C89.0754 56.336 88.8914 56.116 88.6354 55.956C88.3794 55.788 88.0914 55.704 87.7714 55.704C87.3394 55.704 86.9914 55.832 86.7274 56.088C86.4634 56.344 86.3314 56.692 86.3314 57.132C86.3314 57.572 86.4634 57.92 86.7274 58.176C86.9914 58.424 87.3394 58.548 87.7714 58.548ZM92.3798 54.24H94.3358V54.864C94.5758 54.608 94.8518 54.412 95.1638 54.276C95.4758 54.132 95.8078 54.06 96.1598 54.06C96.5918 54.06 96.9358 54.124 97.1918 54.252C97.4558 54.38 97.6678 54.572 97.8278 54.828C98.0678 54.588 98.3598 54.4 98.7038 54.264C99.0478 54.128 99.3958 54.06 99.7478 54.06C100.508 54.06 101.048 54.256 101.368 54.648C101.688 55.032 101.848 55.588 101.848 56.316V60H99.8318V56.616C99.8318 56.296 99.7718 56.064 99.6518 55.92C99.5318 55.776 99.3318 55.704 99.0518 55.704C98.6918 55.704 98.3998 55.832 98.1758 56.088C98.1838 56.224 98.1878 56.432 98.1878 56.712V60H96.1718V56.532C96.1718 56.236 96.1198 56.024 96.0158 55.896C95.9118 55.768 95.7278 55.704 95.4638 55.704C95.0558 55.704 94.7038 55.932 94.4078 56.388V60H92.3798V54.24ZM103.996 53.472C103.676 53.472 103.408 53.368 103.192 53.16C102.976 52.952 102.868 52.688 102.868 52.368C102.868 52.056 102.976 51.796 103.192 51.588C103.408 51.372 103.676 51.264 103.996 51.264C104.308 51.264 104.572 51.372 104.788 51.588C105.012 51.796 105.124 52.056 105.124 52.368C105.124 52.68 105.012 52.944 104.788 53.16C104.572 53.368 104.308 53.472 103.996 53.472ZM102.94 54.24H105.052V60H102.94V54.24ZM106.208 54.24H108.248V54.876C108.496 54.604 108.796 54.4 109.148 54.264C109.5 54.128 109.868 54.06 110.252 54.06C111.06 54.06 111.656 54.272 112.04 54.696C112.432 55.112 112.628 55.68 112.628 56.4V60H110.516V56.676C110.516 56.028 110.22 55.704 109.628 55.704C109.356 55.704 109.108 55.768 108.884 55.896C108.66 56.016 108.472 56.204 108.32 56.46V60H106.208V54.24ZM117.728 51.612H121.424C122.4 51.612 123.18 51.868 123.764 52.38C124.348 52.892 124.64 53.608 124.64 54.528C124.64 55.472 124.348 56.204 123.764 56.724C123.188 57.236 122.408 57.492 121.424 57.492H119.852V60H117.728V51.612ZM121.088 55.704C121.512 55.704 121.844 55.616 122.084 55.44C122.332 55.264 122.456 54.96 122.456 54.528C122.456 54.096 122.336 53.8 122.096 53.64C121.856 53.48 121.52 53.4 121.088 53.4H119.852V55.704H121.088ZM126.872 60.18C126.152 60.18 125.568 60.008 125.12 59.664C124.68 59.312 124.46 58.824 124.46 58.2C124.46 57.552 124.672 57.056 125.096 56.712C125.528 56.36 126.144 56.184 126.944 56.184C127.256 56.184 127.568 56.22 127.88 56.292C128.192 56.356 128.46 56.444 128.684 56.556V56.436C128.684 55.82 128.18 55.512 127.172 55.512C126.468 55.512 125.824 55.648 125.24 55.92V54.468C125.496 54.348 125.832 54.252 126.248 54.18C126.664 54.1 127.096 54.06 127.544 54.06C128.616 54.06 129.424 54.276 129.968 54.708C130.52 55.132 130.796 55.728 130.796 56.496V60H128.816V59.508C128.6 59.716 128.328 59.88 128 60C127.672 60.12 127.296 60.18 126.872 60.18ZM127.496 58.884C127.744 58.884 127.976 58.836 128.192 58.74C128.408 58.636 128.572 58.504 128.684 58.344V57.84C128.34 57.608 127.948 57.492 127.508 57.492C127.228 57.492 127.012 57.552 126.86 57.672C126.708 57.792 126.632 57.968 126.632 58.2C126.632 58.416 126.704 58.584 126.848 58.704C127 58.824 127.216 58.884 127.496 58.884ZM131.813 54.24H133.853V54.876C134.101 54.604 134.401 54.4 134.753 54.264C135.105 54.128 135.473 54.06 135.857 54.06C136.665 54.06 137.261 54.272 137.645 54.696C138.037 55.112 138.233 55.68 138.233 56.4V60H136.121V56.676C136.121 56.028 135.825 55.704 135.233 55.704C134.961 55.704 134.713 55.768 134.489 55.896C134.265 56.016 134.077 56.204 133.925 56.46V60H131.813V54.24ZM142.639 60.18C141.511 60.18 140.623 59.916 139.975 59.388C139.335 58.86 139.015 58.112 139.015 57.144C139.015 56.192 139.299 55.44 139.867 54.888C140.443 54.336 141.271 54.06 142.351 54.06C143.039 54.06 143.627 54.192 144.115 54.456C144.611 54.712 144.983 55.068 145.231 55.524C145.487 55.972 145.615 56.48 145.615 57.048V57.828H141.019C141.099 58.148 141.299 58.38 141.619 58.524C141.939 58.668 142.375 58.74 142.927 58.74C143.303 58.74 143.687 58.708 144.079 58.644C144.479 58.58 144.823 58.492 145.111 58.38V59.772C144.815 59.892 144.443 59.988 143.995 60.06C143.555 60.14 143.103 60.18 142.639 60.18ZM143.623 56.508C143.591 56.196 143.463 55.952 143.239 55.776C143.015 55.6 142.707 55.512 142.315 55.512C141.931 55.512 141.627 55.604 141.403 55.788C141.179 55.964 141.051 56.204 141.019 56.508H143.623ZM146.45 51.132H148.562V60H146.45V51.132Z" fill="#1A78C5"/>
<defs>
<linearGradient id="paint0_linear_311_329" x1="0" y1="30" x2="113" y2="30" gradientUnits="userSpaceOnUse">
<stop stop-color="#C2E0F9"/>
<stop offset="1" stop-color="#2E77B3"/>
</linearGradient>
</defs>
</svg>
